<?xml version="1.0" encoding="utf-8"?>
<!-- Svg Vector Icons : http://www.onlinewebfonts.com/icon -->
<!DOCTYPE svg PUBLIC "-//W3C//DTD SVG 1.1//EN" "http://www.w3.org/Graphics/SVG/1.1/DTD/svg11.dtd">
<svg version="1.1" xmlns="http://www.w3.org/2000/svg" xmlns:xlink="http://www.w3.org/1999/xlink" x="0px" y="0px" viewBox="0 0 1000 1000" enable-background="new 0 0 1000 1000" xml:space="preserve">
<metadata> Svg Vector Icons : http://www.onlinewebfonts.com/icon </metadata>
<g><path d="M883.4,242L749.3,107.9L373.9,480l135.5,134.5L883.4,242L883.4,242z M303.1,680.9l175.4-42.5L350,510.9L303.1,680.9L303.1,680.9z M967.6,51.7l-26.9-26.9c-29.9-29.9-77.7-29.9-107.6,0l-51,50.6l134.1,134.1l51.4-51.2C997.5,129.4,997.5,81.6,967.6,51.7L967.6,51.7L967.6,51.7z M808.3,893.8c0,11.3-9.2,20.5-20.5,20.5h-96.2h-38.5H113.9c-11.3,0-20.5-9.2-20.5-20.5V146c0-11.3,9.2-20.5,20.5-20.5h521.8V42.1H113.9C56.6,42.1,10,88.7,10,146v747.8c0,57.3,46.6,103.8,103.9,103.8h539.2h38.5h96.2c57.3,0,103.9-46.6,103.9-103.8V392.5h-83.3V893.8L808.3,893.8L808.3,893.8z"/></g>
</svg>